<svg xmlns="http://www.w3.org/2000/svg" viewBox="0 0 1600 900">
<defs><linearGradient id="g" x1="0" x2="1"><stop stop-color="#0f172a"/><stop offset="1" stop-color="#1e293b"/></linearGradient></defs>
<rect width="1600" height="900" fill="url(#g)"/>
<circle cx="1250" cy="180" r="220" fill="#7dd3fc" opacity="0.12"/>
<circle cx="260" cy="760" r="260" fill="#d6b37a" opacity="0.13"/>
<rect x="120" y="130" width="600" height="640" rx="34" fill="#f8fafc" opacity="0.95"/>
<rect x="160" y="190" width="520" height="200" rx="20" fill="#dbeafe"/>
<rect x="160" y="430" width="250" height="280" rx="22" fill="#e2e8f0"/>
<rect x="430" y="430" width="250" height="280" rx="22" fill="#e5e7eb"/>
<path d="M910 650c120-200 210-320 360-390 26 120-8 308-131 410-78 64-164 74-229 60Z" fill="#d6b37a"/>
<path d="M970 610c60-126 116-215 209-274 8 95-21 203-79 270-43 50-86 66-130 64Z" fill="#7dd3fc" opacity="0.75"/>
</svg>