<svg xmlns="http://www.w3.org/2000/svg" viewBox="0 0 1600 900">
<rect width="1600" height="900" fill="#f9fafb"/>
<circle cx="800" cy="450" r="280" fill="#0f172a"/>
<circle cx="800" cy="450" r="200" fill="#1e293b"/>
<circle cx="800" cy="450" r="110" fill="#d6b37a"/>
<g fill="#7dd3fc">
<circle cx="800" cy="90" r="42"/><circle cx="1120" cy="190" r="42"/><circle cx="1290" cy="450" r="42"/>
<circle cx="1120" cy="710" r="42"/><circle cx="800" cy="810" r="42"/><circle cx="480" cy="710" r="42"/>
<circle cx="310" cy="450" r="42"/><circle cx="480" cy="190" r="42"/><circle cx="800" cy="450" r="42" opacity="0.0"/>
</g>
<g stroke="#cbd5e1" stroke-width="8">
<line x1="800" y1="170" x2="800" y2="280"/><line x1="1060" y1="250" x2="930" y2="330"/>
<line x1="1210" y1="450" x2="1020" y2="450"/><line x1="1060" y1="650" x2="930" y2="570"/>
<line x1="800" y1="730" x2="800" y2="620"/><line x1="540" y1="650" x2="670" y2="570"/>
<line x1="390" y1="450" x2="580" y2="450"/><line x1="540" y1="250" x2="670" y2="330"/>
</g>
</svg>